<svg xmlns="http://www.w3.org/2000/svg" viewBox="0 0 512 512" role="img" aria-labelledby="title desc">
  <title id="title">The Horny Grail public app logo</title>
  <desc id="desc">A gold grail with photo cards rising from it on a deep blue badge.</desc>
  <defs>
    <linearGradient id="hg-public-bg" x1="80" x2="430" y1="30" y2="490" gradientUnits="userSpaceOnUse">
      <stop offset="0" stop-color="#30475f" />
      <stop offset="0.56" stop-color="#172535" />
      <stop offset="1" stop-color="#0d1520" />
    </linearGradient>
    <radialGradient id="hg-public-glow" cx="256" cy="235" r="210" gradientUnits="userSpaceOnUse">
      <stop offset="0" stop-color="#ffcf73" stop-opacity="0.38" />
      <stop offset="0.48" stop-color="#e74c3c" stop-opacity="0.17" />
      <stop offset="1" stop-color="#0d1520" stop-opacity="0" />
    </radialGradient>
    <linearGradient id="hg-public-gold" x1="134" x2="384" y1="162" y2="430" gradientUnits="userSpaceOnUse">
      <stop offset="0" stop-color="#fff0a6" />
      <stop offset="0.38" stop-color="#f0b84f" />
      <stop offset="0.7" stop-color="#c77926" />
      <stop offset="1" stop-color="#8d4d1c" />
    </linearGradient>
    <linearGradient id="hg-public-rim" x1="114" x2="398" y1="170" y2="224" gradientUnits="userSpaceOnUse">
      <stop offset="0" stop-color="#fff4bb" />
      <stop offset="0.45" stop-color="#f8c85f" />
      <stop offset="1" stop-color="#b76226" />
    </linearGradient>
    <linearGradient id="hg-public-card" x1="134" x2="370" y1="74" y2="198" gradientUnits="userSpaceOnUse">
      <stop offset="0" stop-color="#fff9ef" />
      <stop offset="1" stop-color="#ffe0bd" />
    </linearGradient>
    <filter id="hg-public-shadow" x="-20%" y="-20%" width="140%" height="150%">
      <feDropShadow dx="0" dy="16" stdDeviation="18" flood-color="#05070a" flood-opacity="0.42" />
    </filter>
  </defs>

  <rect width="512" height="512" rx="112" fill="url(#hg-public-bg)" />
  <circle cx="256" cy="235" r="220" fill="url(#hg-public-glow)" />
  <path fill="#ffffff" fill-opacity="0.05" d="M56 378c76-26 136-28 211-4 72 23 122 21 189-12v86c-58 37-119 44-190 18-76-28-138-23-210 12z" />

  <g filter="url(#hg-public-shadow)">
    <g transform="rotate(-13 168 153)">
      <rect x="126" y="90" width="84" height="106" rx="14" fill="url(#hg-public-card)" />
      <rect x="138" y="106" width="60" height="68" rx="8" fill="#28506a" />
      <circle cx="184" cy="121" r="8" fill="#f2bd53" />
      <path fill="#8fd2c2" d="M140 162l19-22 14 16 9-9 17 15v12h-59z" />
    </g>
    <g transform="rotate(5 256 132)">
      <rect x="212" y="70" width="88" height="118" rx="15" fill="#fff6e6" />
      <rect x="224" y="88" width="64" height="78" rx="8" fill="#733f45" />
      <path fill="#f2bd53" d="M224 140l22-25 18 21 11-13 13 16v27h-64z" />
      <circle cx="275" cy="104" r="8" fill="#ffe2a3" />
    </g>
    <g transform="rotate(14 342 158)">
      <rect x="304" y="104" width="76" height="96" rx="13" fill="url(#hg-public-card)" />
      <rect x="315" y="119" width="54" height="60" rx="8" fill="#213447" />
      <path fill="#e74c3c" d="M337 137l27 16-27 16z" />
    </g>

    <path fill="url(#hg-public-gold)" d="M132 194h248c-10 105-49 162-124 162s-114-57-124-162z" />
    <path fill="#73361f" fill-opacity="0.32" d="M155 214c19 72 50 106 101 106 51 0 82-34 101-106z" />
    <ellipse cx="256" cy="195" rx="142" ry="30" fill="url(#hg-public-rim)" />
    <ellipse cx="256" cy="192" rx="105" ry="16" fill="#5a2630" fill-opacity="0.92" />
    <path fill="#ffdf88" fill-opacity="0.82" d="M166 205c18 18 53 29 90 29 38 0 73-11 91-29-14 41-42 73-91 73-48 0-77-32-90-73z" />
    <path fill="#fff6c9" fill-opacity="0.62" d="M177 213c12 58 36 94 71 109-52-4-80-42-96-109z" />
    <path fill="url(#hg-public-gold)" d="M228 350h56l12 76h-80z" />
    <ellipse cx="256" cy="430" rx="86" ry="25" fill="url(#hg-public-rim)" />
    <ellipse cx="256" cy="430" rx="56" ry="12" fill="#fff0a6" fill-opacity="0.45" />
  </g>
</svg>
