<svg xmlns="http://www.w3.org/2000/svg" viewBox="0 0 512 512" role="img" aria-labelledby="title desc">
  <title id="title">HornyGrail mobile app logo</title>
  <desc id="desc">A compact gold grail with small photo cards rising from it on a warm mobile badge.</desc>
  <defs>
    <linearGradient id="hg-mobile-bg" x1="74" x2="438" y1="48" y2="478" gradientUnits="userSpaceOnUse">
      <stop offset="0" stop-color="#fff4da" />
      <stop offset="0.52" stop-color="#f1dfc2" />
      <stop offset="1" stop-color="#d9bea0" />
    </linearGradient>
    <radialGradient id="hg-mobile-halo" cx="257" cy="216" r="205" gradientUnits="userSpaceOnUse">
      <stop offset="0" stop-color="#1d7a6d" stop-opacity="0.3" />
      <stop offset="0.56" stop-color="#d5662a" stop-opacity="0.18" />
      <stop offset="1" stop-color="#ffffff" stop-opacity="0" />
    </radialGradient>
    <linearGradient id="hg-mobile-gold" x1="151" x2="356" y1="180" y2="421" gradientUnits="userSpaceOnUse">
      <stop offset="0" stop-color="#fff2b8" />
      <stop offset="0.42" stop-color="#edb867" />
      <stop offset="0.76" stop-color="#c56d31" />
      <stop offset="1" stop-color="#8a3f22" />
    </linearGradient>
    <linearGradient id="hg-mobile-rim" x1="132" x2="380" y1="187" y2="227" gradientUnits="userSpaceOnUse">
      <stop offset="0" stop-color="#fff7c9" />
      <stop offset="0.48" stop-color="#edb867" />
      <stop offset="1" stop-color="#a85428" />
    </linearGradient>
    <filter id="hg-mobile-shadow" x="-20%" y="-20%" width="140%" height="150%">
      <feDropShadow dx="0" dy="14" stdDeviation="15" flood-color="#281d16" flood-opacity="0.22" />
    </filter>
  </defs>

  <rect x="24" y="24" width="464" height="464" rx="118" fill="url(#hg-mobile-bg)" />
  <circle cx="256" cy="221" r="216" fill="url(#hg-mobile-halo)" />
  <path fill="#ffffff" fill-opacity="0.52" d="M74 395c71-24 123-22 188 1 64 23 111 19 176-15v55c-57 38-119 43-184 17-66-26-121-23-180 7z" />

  <g filter="url(#hg-mobile-shadow)">
    <g transform="rotate(-11 174 153)">
      <rect x="136" y="96" width="76" height="96" rx="17" fill="#fffaf1" />
      <rect x="148" y="112" width="52" height="58" rx="10" fill="#1d7a6d" />
      <path fill="#9ddcc4" d="M148 159l16-17 13 14 9-9 14 13v10h-52z" />
      <circle cx="187" cy="126" r="7" fill="#ffd48a" />
    </g>
    <g transform="rotate(7 263 137)">
      <rect x="220" y="76" width="86" height="112" rx="19" fill="#fffaf1" />
      <rect x="234" y="94" width="58" height="72" rx="10" fill="#34251d" />
      <path fill="#d5662a" d="M234 143l19-22 15 17 9-10 15 17v21h-58z" />
      <circle cx="278" cy="110" r="7" fill="#edb867" />
    </g>
    <g transform="rotate(13 340 160)">
      <rect x="305" y="112" width="70" height="88" rx="16" fill="#fffaf1" />
      <rect x="317" y="128" width="46" height="54" rx="9" fill="#294b43" />
      <path fill="#fff3cb" d="M336 142l24 14-24 14z" />
    </g>

    <path fill="url(#hg-mobile-gold)" d="M142 201h228c-11 95-47 146-114 146s-103-51-114-146z" />
    <path fill="#4b2a20" fill-opacity="0.26" d="M164 219c18 62 47 91 92 91s74-29 92-91z" />
    <ellipse cx="256" cy="200" rx="130" ry="28" fill="url(#hg-mobile-rim)" />
    <ellipse cx="256" cy="197" rx="95" ry="15" fill="#4a2a2b" fill-opacity="0.9" />
    <path fill="#fff3bf" fill-opacity="0.7" d="M172 219c15 38 42 60 84 60s69-22 84-60c-11 68-41 101-84 101s-73-33-84-101z" />
    <path fill="url(#hg-mobile-gold)" d="M230 341h52l12 72h-76z" />
    <ellipse cx="256" cy="418" rx="80" ry="24" fill="url(#hg-mobile-rim)" />
    <ellipse cx="256" cy="418" rx="51" ry="12" fill="#fff5bf" fill-opacity="0.5" />
  </g>

  <circle cx="399" cy="113" r="10" fill="#1d7a6d" fill-opacity="0.58" />
  <circle cx="101" cy="142" r="7" fill="#d5662a" fill-opacity="0.62" />
  <circle cx="113" cy="356" r="9" fill="#1d7a6d" fill-opacity="0.35" />
</svg>
